<?xml version="1.0" encoding="UTF-8" standalone="no"?>
<!DOCTYPE svg PUBLIC "-//W3C//DTD SVG 1.1//EN"
 "http://www.w3.org/Graphics/SVG/1.1/DTD/svg11.dtd">
<!-- Generated by graphviz version 2.38.0 (20140413.2041)
 -->
<!-- Title: foo Pages: 1 -->
<svg width="565pt" height="121pt"
 viewBox="0.00 0.00 565.04 121.00" xmlns="http://www.w3.org/2000/svg" xmlns:xlink="http://www.w3.org/1999/xlink">
<g id="graph0" class="graph" transform="scale(1 1) rotate(0) translate(4 117)">
<title>foo</title>
<polygon fill="white" stroke="none" points="-4,4 -4,-117 561.037,-117 561.037,4 -4,4"/>
<!-- Deposit API -->
<g id="node1" class="node"><title>Deposit API</title>
<polygon fill="none" stroke="#ffffff" points="464.037,-38.5 464.037,-74.5 548.037,-74.5 548.037,-38.5 464.037,-38.5"/>
<text text-anchor="middle" x="506.037" y="-53.4" font-family="Verdana" font-size="12.00">Deposit API</text>
</g>
<!-- Withdraw API -->
<g id="node2" class="node"><title>Withdraw API</title>
<polygon fill="none" stroke="#ffffff" points="458.037,-0.5 458.037,-36.5 554.037,-36.5 554.037,-0.5 458.037,-0.5"/>
<text text-anchor="middle" x="506.037" y="-15.4" font-family="Verdana" font-size="12.00">Withdraw API</text>
</g>
<!-- Blockchain API -->
<g id="node3" class="node"><title>Blockchain API</title>
<polygon fill="none" stroke="#ffffff" points="455.037,-76.5 455.037,-112.5 557.037,-112.5 557.037,-76.5 455.037,-76.5"/>
<text text-anchor="middle" x="506.037" y="-91.4" font-family="Verdana" font-size="12.00">Blockchain API</text>
</g>
<!-- P2P network -->
<g id="node4" class="node"><title>P2P network</title>
<ellipse fill="none" stroke="#999999" cx="56.0184" cy="-56.5" rx="56.0368" ry="18"/>
<text text-anchor="middle" x="56.0184" y="-53.4" font-family="Verdana" font-size="12.00">P2P network</text>
</g>
<!-- Trusted Full Node -->
<g id="node5" class="node"><title>Trusted Full Node</title>
<polygon fill="#eeeeee" stroke="#eeeeee" points="148.037,-38.5 148.037,-74.5 264.037,-74.5 264.037,-38.5 148.037,-38.5"/>
<text text-anchor="middle" x="206.037" y="-53.4" font-family="Verdana" font-size="12.00">Trusted Full Node</text>
</g>
<!-- P2P network&#45;&gt;Trusted Full Node -->
<g id="edge1" class="edge"><title>P2P network&#45;&gt;Trusted Full Node</title>
<path fill="none" stroke="#31cef0" d="M122.307,-56.5C122.307,-56.5 137.932,-56.5 137.932,-56.5"/>
<polygon fill="#31cef0" stroke="#31cef0" points="137.932,-60 147.932,-56.5 137.932,-53 137.932,-60"/>
<polygon fill="#31cef0" stroke="#31cef0" points="122.307,-53 112.307,-56.5 122.307,-60 122.307,-53"/>
</g>
<!-- Trusted Full Node&#45;&gt;Blockchain API -->
<g id="edge2" class="edge"><title>Trusted Full Node&#45;&gt;Blockchain API</title>
<path fill="none" stroke="#31cef0" d="M206.037,-84.6097C206.037,-84.6097 206.037,-94.5 206.037,-94.5 206.037,-94.5 444.806,-94.5 444.806,-94.5"/>
<polygon fill="#31cef0" stroke="#31cef0" points="209.537,-84.6096 206.037,-74.6097 202.537,-84.6097 209.537,-84.6096"/>
<polygon fill="#31cef0" stroke="#31cef0" points="444.806,-98.0001 454.806,-94.5 444.806,-91.0001 444.806,-98.0001"/>
</g>
<!-- Delayed Full Node -->
<g id="node6" class="node"><title>Delayed Full Node</title>
<polygon fill="#eeeeee" stroke="#eeeeee" points="300.037,-38.5 300.037,-74.5 419.037,-74.5 419.037,-38.5 300.037,-38.5"/>
<text text-anchor="middle" x="359.537" y="-53.4" font-family="Verdana" font-size="12.00">Delayed Full Node</text>
</g>
<!-- Trusted Full Node&#45;&gt;Delayed Full Node -->
<g id="edge3" class="edge"><title>Trusted Full Node&#45;&gt;Delayed Full Node</title>
<path fill="none" stroke="#31cef0" d="M274.069,-56.5C274.069,-56.5 289.891,-56.5 289.891,-56.5"/>
<polygon fill="#31cef0" stroke="#31cef0" points="289.891,-60 299.891,-56.5 289.891,-53 289.891,-60"/>
<polygon fill="#31cef0" stroke="#31cef0" points="274.069,-53 264.069,-56.5 274.069,-60 274.069,-53"/>
</g>
<!-- Wallet -->
<g id="node7" class="node"><title>Wallet</title>
<polygon fill="#eeeeee" stroke="#eeeeee" points="332.537,-0.5 332.537,-36.5 386.537,-36.5 386.537,-0.5 332.537,-0.5"/>
<text text-anchor="middle" x="359.537" y="-15.4" font-family="Verdana" font-size="12.00">Wallet</text>
</g>
<!-- Trusted Full Node&#45;&gt;Wallet -->
<g id="edge5" class="edge"><title>Trusted Full Node&#45;&gt;Wallet</title>
<path fill="none" stroke="#31cef0" d="M206.037,-28.3903C206.037,-28.3903 206.037,-18.5 206.037,-18.5 206.037,-18.5 322.447,-18.5 322.447,-18.5"/>
<polygon fill="#31cef0" stroke="#31cef0" points="202.537,-28.3903 206.037,-38.3903 209.537,-28.3904 202.537,-28.3903"/>
<polygon fill="#31cef0" stroke="#31cef0" points="322.447,-22.0001 332.447,-18.5 322.447,-15.0001 322.447,-22.0001"/>
</g>
<!-- Delayed Full Node&#45;&gt;Deposit API -->
<g id="edge4" class="edge"><title>Delayed Full Node&#45;&gt;Deposit API</title>
<path fill="none" stroke="#31cef0" d="M429.124,-56.5C429.124,-56.5 454.007,-56.5 454.007,-56.5"/>
<polygon fill="#31cef0" stroke="#31cef0" points="454.007,-60 464.007,-56.5 454.007,-53 454.007,-60"/>
<polygon fill="#31cef0" stroke="#31cef0" points="429.124,-53 419.124,-56.5 429.124,-60 429.124,-53"/>
</g>
<!-- Wallet&#45;&gt;Withdraw API -->
<g id="edge6" class="edge"><title>Wallet&#45;&gt;Withdraw API</title>
<path fill="none" stroke="#31cef0" d="M396.749,-18.5C396.749,-18.5 447.917,-18.5 447.917,-18.5"/>
<polygon fill="#31cef0" stroke="#31cef0" points="447.917,-22 457.917,-18.5 447.917,-15 447.917,-22"/>
<polygon fill="#31cef0" stroke="#31cef0" points="396.749,-15 386.749,-18.5 396.749,-22 396.749,-15"/>
</g>
</g>
</svg>
