<?xml version="1.0" encoding="UTF-8" standalone="no"?>
<!DOCTYPE svg PUBLIC "-//W3C//DTD SVG 1.1//EN"
 "http://www.w3.org/Graphics/SVG/1.1/DTD/svg11.dtd">
<!-- Generated by graphviz version 2.38.0 (20140413.2041)
 -->
<!-- Title: G Pages: 1 -->
<svg width="274pt" height="126pt"
 viewBox="0.00 0.00 274.47 126.00" xmlns="http://www.w3.org/2000/svg" xmlns:xlink="http://www.w3.org/1999/xlink">
<g id="graph0" class="graph" transform="scale(1 1) rotate(0) translate(4 122)">
<title>G</title>
<polygon fill="white" stroke="none" points="-4,4 -4,-122 270.473,-122 270.473,4 -4,4"/>
<!-- proposal -->
<g id="node1" class="node"><title>proposal</title>
<ellipse fill="#eeeeee" stroke="#eeeeee" cx="122" cy="-100" rx="41.7203" ry="18"/>
<text text-anchor="middle" x="122" y="-96.9" font-family="Verdana" font-size="12.00">proposal</text>
</g>
<!-- Alice -->
<g id="node2" class="node"><title>Alice</title>
<ellipse fill="#eeeeee" stroke="#eeeeee" cx="27" cy="-18" rx="27" ry="18"/>
<text text-anchor="middle" x="27" y="-14.9" font-family="Verdana" font-size="12.00">Alice</text>
</g>
<!-- proposal&#45;&gt;Alice -->
<g id="edge1" class="edge"><title>proposal&#45;&gt;Alice</title>
<path fill="none" stroke="#31cef0" d="M95.8019,-76.9384C78.9021,-62.707 57.4649,-44.6547 43.0483,-32.5143"/>
<polygon fill="#31cef0" stroke="#31cef0" points="93.7794,-79.811 103.683,-83.5752 98.2884,-74.4566 93.7794,-79.811"/>
<text text-anchor="middle" x="91.5" y="-56.8" font-family="Verdana" font-size="9.00">33%</text>
</g>
<!-- Bob -->
<g id="node3" class="node"><title>Bob</title>
<ellipse fill="#eeeeee" stroke="#eeeeee" cx="88" cy="-18" rx="27" ry="18"/>
<text text-anchor="middle" x="88" y="-14.9" font-family="Verdana" font-size="12.00">Bob</text>
</g>
<!-- proposal&#45;&gt;Bob -->
<g id="edge2" class="edge"><title>proposal&#45;&gt;Bob</title>
<path fill="none" stroke="#31cef0" d="M110.821,-72.6954C105.593,-60.3946 99.5297,-46.1287 94.9676,-35.3943"/>
<polygon fill="#31cef0" stroke="#31cef0" points="107.657,-74.1998 114.789,-82.0341 114.099,-71.4617 107.657,-74.1998"/>
<text text-anchor="middle" x="118.5" y="-56.8" font-family="Verdana" font-size="9.00">33%</text>
</g>
<!-- Charlie -->
<g id="node4" class="node"><title>Charlie</title>
<ellipse fill="#eeeeee" stroke="#eeeeee" cx="156" cy="-18" rx="34.4458" ry="18"/>
<text text-anchor="middle" x="156" y="-14.9" font-family="Verdana" font-size="12.00">Charlie</text>
</g>
<!-- proposal&#45;&gt;Charlie -->
<g id="edge3" class="edge"><title>proposal&#45;&gt;Charlie</title>
<path fill="none" stroke="#31cef0" d="M133.152,-72.7611C138.342,-60.5493 144.36,-46.3888 148.916,-35.6672"/>
<polygon fill="#31cef0" stroke="#31cef0" points="129.901,-71.4617 129.211,-82.0341 136.343,-74.1998 129.901,-71.4617"/>
<text text-anchor="middle" x="152.5" y="-56.8" font-family="Verdana" font-size="9.00">33%</text>
</g>
<!-- Dennis -->
<g id="node5" class="node"><title>Dennis</title>
<ellipse fill="#eeeeee" stroke="#eeeeee" cx="232" cy="-18" rx="34.4458" ry="18"/>
<text text-anchor="middle" x="232" y="-14.9" font-family="Verdana" font-size="12.00">Dennis</text>
</g>
<!-- proposal&#45;&gt;Dennis -->
<g id="edge4" class="edge"><title>proposal&#45;&gt;Dennis</title>
<path fill="none" stroke="#31cef0" d="M150.69,-78.1348C170.252,-63.9079 195.623,-45.4563 212.782,-32.9764"/>
<polygon fill="#31cef0" stroke="#31cef0" points="148.461,-75.4278 142.432,-84.1401 152.578,-81.0889 148.461,-75.4278"/>
<text text-anchor="middle" x="194.5" y="-56.8" font-family="Verdana" font-size="9.00">33%</text>
</g>
</g>
</svg>
