<?xml version="1.0" encoding="UTF-8" standalone="no"?>
<!DOCTYPE svg PUBLIC "-//W3C//DTD SVG 1.1//EN"
 "http://www.w3.org/Graphics/SVG/1.1/DTD/svg11.dtd">
<!-- Generated by graphviz version 2.38.0 (20140413.2041)
 -->
<!-- Title: foo Pages: 1 -->
<svg width="432pt" height="87pt"
 viewBox="0.00 0.00 432.00 87.00" xmlns="http://www.w3.org/2000/svg" xmlns:xlink="http://www.w3.org/1999/xlink">
<g id="graph0" class="graph" transform="scale(1 1) rotate(0) translate(4 83)">
<title>foo</title>
<polygon fill="white" stroke="none" points="-4,4 -4,-83 428,-83 428,4 -4,4"/>
<!-- P2P network -->
<g id="node1" class="node"><title>P2P network</title>
<polygon fill="#eeeeee" stroke="#eeeeee" points="91,-61 0,-61 0,-25 91,-25 91,-61"/>
<text text-anchor="middle" x="45.5" y="-39.9" font-family="Verdana" font-size="12.00">P2P network</text>
</g>
<!-- Full Node -->
<g id="node2" class="node"><title>Full Node</title>
<polygon fill="#eeeeee" stroke="#eeeeee" points="196,-61 127,-61 127,-25 196,-25 196,-61"/>
<text text-anchor="middle" x="161.5" y="-39.9" font-family="Verdana" font-size="12.00">Full Node</text>
</g>
<!-- P2P network&#45;&gt;Full Node -->
<g id="edge1" class="edge"><title>P2P network&#45;&gt;Full Node</title>
<path fill="none" stroke="#31cef0" d="M101.013,-43C101.013,-43 116.88,-43 116.88,-43"/>
<polygon fill="#31cef0" stroke="#31cef0" points="116.88,-46.5 126.88,-43 116.88,-39.5 116.88,-46.5"/>
<polygon fill="#31cef0" stroke="#31cef0" points="101.013,-39.5 91.0133,-43 101.013,-46.5 101.013,-39.5"/>
</g>
<!-- Blockchain API -->
<g id="node3" class="node"><title>Blockchain API</title>
<polygon fill="#eeeeee" stroke="#eeeeee" points="424,-79 322,-79 322,-43 424,-43 424,-79"/>
<text text-anchor="middle" x="373" y="-57.9" font-family="Verdana" font-size="12.00">Blockchain API</text>
</g>
<!-- Full Node&#45;&gt;Blockchain API -->
<g id="edge2" class="edge"><title>Full Node&#45;&gt;Blockchain API</title>
<path fill="none" stroke="#31cef0" d="M206.425,-52C206.425,-52 321.789,-52 321.789,-52"/>
<polygon fill="#31cef0" stroke="#31cef0" points="206.425,-48.5001 196.425,-52 206.425,-55.5001 206.425,-48.5001"/>
</g>
<!-- Wallet -->
<g id="node4" class="node"><title>Wallet</title>
<polygon fill="#eeeeee" stroke="#eeeeee" points="286,-43 232,-43 232,-7 286,-7 286,-43"/>
<text text-anchor="middle" x="259" y="-21.9" font-family="Verdana" font-size="12.00">Wallet</text>
</g>
<!-- Full Node&#45;&gt;Wallet -->
<g id="edge3" class="edge"><title>Full Node&#45;&gt;Wallet</title>
<path fill="none" stroke="#31cef0" d="M206.149,-34C206.149,-34 231.814,-34 231.814,-34"/>
<polygon fill="#31cef0" stroke="#31cef0" points="206.149,-30.5001 196.149,-34 206.149,-37.5001 206.149,-30.5001"/>
</g>
<!-- Withdraw API -->
<g id="node5" class="node"><title>Withdraw API</title>
<polygon fill="#eeeeee" stroke="#eeeeee" points="421,-36 325,-36 325,-0 421,-0 421,-36"/>
<text text-anchor="middle" x="373" y="-14.9" font-family="Verdana" font-size="12.00">Withdraw API</text>
</g>
<!-- Wallet&#45;&gt;Withdraw API -->
<g id="edge4" class="edge"><title>Wallet&#45;&gt;Withdraw API</title>
<path fill="none" stroke="#31cef0" d="M296.016,-21.5C296.016,-21.5 324.757,-21.5 324.757,-21.5"/>
<polygon fill="#31cef0" stroke="#31cef0" points="296.016,-18.0001 286.016,-21.5 296.016,-25.0001 296.016,-18.0001"/>
</g>
</g>
</svg>
