<?xml version="1.0" encoding="UTF-8" standalone="no"?>
<!DOCTYPE svg PUBLIC "-//W3C//DTD SVG 1.1//EN"
 "http://www.w3.org/Graphics/SVG/1.1/DTD/svg11.dtd">
<!-- Generated by graphviz version 2.38.0 (20140413.2041)
 -->
<!-- Title: foo Pages: 1 -->
<svg width="500pt" height="83pt"
 viewBox="0.00 0.00 500.04 83.00" xmlns="http://www.w3.org/2000/svg" xmlns:xlink="http://www.w3.org/1999/xlink">
<g id="graph0" class="graph" transform="scale(1 1) rotate(0) translate(4 79)">
<title>foo</title>
<polygon fill="white" stroke="none" points="-4,4 -4,-79 496.037,-79 496.037,4 -4,4"/>
<!-- Wallet API -->
<g id="node1" class="node"><title>Wallet API</title>
<polygon fill="none" stroke="#ffffff" points="404.037,-0.5 404.037,-36.5 478.037,-36.5 478.037,-0.5 404.037,-0.5"/>
<text text-anchor="middle" x="441.037" y="-15.4" font-family="Verdana" font-size="12.00">Wallet API</text>
</g>
<!-- Blockchain API -->
<g id="node2" class="node"><title>Blockchain API</title>
<polygon fill="none" stroke="#ffffff" points="390.037,-38.5 390.037,-74.5 492.037,-74.5 492.037,-38.5 390.037,-38.5"/>
<text text-anchor="middle" x="441.037" y="-53.4" font-family="Verdana" font-size="12.00">Blockchain API</text>
</g>
<!-- P2P network -->
<g id="node3" class="node"><title>P2P network</title>
<ellipse fill="none" stroke="#999999" cx="56.0184" cy="-45.5" rx="56.0368" ry="18"/>
<text text-anchor="middle" x="56.0184" y="-42.4" font-family="Verdana" font-size="12.00">P2P network</text>
</g>
<!-- Trusted Full Node -->
<g id="node4" class="node"><title>Trusted Full Node</title>
<polygon fill="#eeeeee" stroke="#eeeeee" points="148.037,-27.5 148.037,-63.5 264.037,-63.5 264.037,-27.5 148.037,-27.5"/>
<text text-anchor="middle" x="206.037" y="-42.4" font-family="Verdana" font-size="12.00">Trusted Full Node</text>
</g>
<!-- P2P network&#45;&gt;Trusted Full Node -->
<g id="edge1" class="edge"><title>P2P network&#45;&gt;Trusted Full Node</title>
<path fill="none" stroke="#31cef0" d="M122.307,-45.5C122.307,-45.5 137.932,-45.5 137.932,-45.5"/>
<polygon fill="#31cef0" stroke="#31cef0" points="137.932,-49 147.932,-45.5 137.932,-42 137.932,-49"/>
<polygon fill="#31cef0" stroke="#31cef0" points="122.307,-42 112.307,-45.5 122.307,-49 122.307,-42"/>
</g>
<!-- Trusted Full Node&#45;&gt;Blockchain API -->
<g id="edge4" class="edge"><title>Trusted Full Node&#45;&gt;Blockchain API</title>
<path fill="none" stroke="#31cef0" d="M274.127,-54.5C274.127,-54.5 380,-54.5 380,-54.5"/>
<polygon fill="#31cef0" stroke="#31cef0" points="380,-58 390,-54.5 380,-51 380,-58"/>
<polygon fill="#31cef0" stroke="#31cef0" points="274.127,-51 264.127,-54.5 274.127,-58 274.127,-51"/>
</g>
<!-- Wallet -->
<g id="node5" class="node"><title>Wallet</title>
<polygon fill="#eeeeee" stroke="#eeeeee" points="300.037,-8.5 300.037,-44.5 354.037,-44.5 354.037,-8.5 300.037,-8.5"/>
<text text-anchor="middle" x="327.037" y="-23.4" font-family="Verdana" font-size="12.00">Wallet</text>
</g>
<!-- Trusted Full Node&#45;&gt;Wallet -->
<g id="edge2" class="edge"><title>Trusted Full Node&#45;&gt;Wallet</title>
<path fill="none" stroke="#31cef0" d="M274.056,-36C274.056,-36 289.827,-36 289.827,-36"/>
<polygon fill="#31cef0" stroke="#31cef0" points="289.827,-39.5 299.827,-36 289.827,-32.5 289.827,-39.5"/>
<polygon fill="#31cef0" stroke="#31cef0" points="274.056,-32.5 264.056,-36 274.056,-39.5 274.056,-32.5"/>
</g>
<!-- Wallet&#45;&gt;Wallet API -->
<g id="edge3" class="edge"><title>Wallet&#45;&gt;Wallet API</title>
<path fill="none" stroke="#31cef0" d="M364.053,-22.5C364.053,-22.5 393.864,-22.5 393.864,-22.5"/>
<polygon fill="#31cef0" stroke="#31cef0" points="393.864,-26 403.864,-22.5 393.864,-19 393.864,-26"/>
<polygon fill="#31cef0" stroke="#31cef0" points="364.053,-19 354.053,-22.5 364.053,-26 364.053,-19"/>
</g>
</g>
</svg>
