<?xml version="1.0" encoding="UTF-8" standalone="no"?>
<!DOCTYPE svg PUBLIC "-//W3C//DTD SVG 1.1//EN"
 "http://www.w3.org/Graphics/SVG/1.1/DTD/svg11.dtd">
<!-- Generated by graphviz version 2.38.0 (20140413.2041)
 -->
<!-- Title: G Pages: 1 -->
<svg width="884pt" height="199pt"
 viewBox="0.00 0.00 883.87 199.00" xmlns="http://www.w3.org/2000/svg" xmlns:xlink="http://www.w3.org/1999/xlink">
<g id="graph0" class="graph" transform="scale(1 1) rotate(0) translate(4 195)">
<title>G</title>
<polygon fill="white" stroke="none" points="-4,4 -4,-195 879.868,-195 879.868,4 -4,4"/>
<!-- proposal -->
<g id="node1" class="node"><title>proposal</title>
<ellipse fill="#eeeeee" stroke="#eeeeee" cx="393.868" cy="-173" rx="41.7203" ry="18"/>
<text text-anchor="middle" x="393.868" y="-169.9" font-family="Verdana" font-size="12.00">proposal</text>
</g>
<!-- Chief.COMPANY -->
<g id="node2" class="node"><title>Chief.COMPANY</title>
<ellipse fill="#eeeeee" stroke="#eeeeee" cx="65.8678" cy="-91" rx="65.7359" ry="18"/>
<text text-anchor="middle" x="65.8678" y="-87.9" font-family="Verdana" font-size="12.00">Chief.COMPANY</text>
</g>
<!-- proposal&#45;&gt;Chief.COMPANY -->
<g id="edge1" class="edge"><title>proposal&#45;&gt;Chief.COMPANY</title>
<path fill="none" stroke="#31cef0" d="M348.588,-160.956C286.703,-145.862 176.227,-118.917 113.259,-103.559"/>
<polygon fill="#31cef0" stroke="#31cef0" points="347.91,-164.393 358.454,-163.363 349.569,-157.593 347.91,-164.393"/>
<text text-anchor="middle" x="260.368" y="-129.8" font-family="Verdana" font-size="9.00">51%</text>
</g>
<!-- Treasurer.COMPANY -->
<g id="node3" class="node"><title>Treasurer.COMPANY</title>
<ellipse fill="#eeeeee" stroke="#eeeeee" cx="220.868" cy="-91" rx="82.4773" ry="18"/>
<text text-anchor="middle" x="220.868" y="-87.9" font-family="Verdana" font-size="12.00">Treasurer.COMPANY</text>
</g>
<!-- proposal&#45;&gt;Treasurer.COMPANY -->
<g id="edge2" class="edge"><title>proposal&#45;&gt;Treasurer.COMPANY</title>
<path fill="none" stroke="#31cef0" d="M357.05,-154.975C326.641,-140.913 283.838,-121.119 254.377,-107.496"/>
<polygon fill="#31cef0" stroke="#31cef0" points="355.91,-158.303 366.455,-159.324 358.848,-151.95 355.91,-158.303"/>
<text text-anchor="middle" x="328.368" y="-129.8" font-family="Verdana" font-size="9.00">33%</text>
</g>
<!-- Controller.COMPANY -->
<g id="node4" class="node"><title>Controller.COMPANY</title>
<ellipse fill="#eeeeee" stroke="#eeeeee" cx="393.868" cy="-91" rx="83.2086" ry="18"/>
<text text-anchor="middle" x="393.868" y="-87.9" font-family="Verdana" font-size="12.00">Controller.COMPANY</text>
</g>
<!-- proposal&#45;&gt;Controller.COMPANY -->
<g id="edge3" class="edge"><title>proposal&#45;&gt;Controller.COMPANY</title>
<path fill="none" stroke="#31cef0" d="M393.868,-144.428C393.868,-132.675 393.868,-119.334 393.868,-109.05"/>
<polygon fill="#31cef0" stroke="#31cef0" points="390.368,-144.641 393.868,-154.641 397.368,-144.641 390.368,-144.641"/>
<text text-anchor="middle" x="404.368" y="-129.8" font-family="Verdana" font-size="9.00">33%</text>
</g>
<!-- Tax.COMPANY -->
<g id="node5" class="node"><title>Tax.COMPANY</title>
<ellipse fill="#eeeeee" stroke="#eeeeee" cx="543.868" cy="-91" rx="60.1555" ry="18"/>
<text text-anchor="middle" x="543.868" y="-87.9" font-family="Verdana" font-size="12.00">Tax.COMPANY</text>
</g>
<!-- proposal&#45;&gt;Tax.COMPANY -->
<g id="edge4" class="edge"><title>proposal&#45;&gt;Tax.COMPANY</title>
<path fill="none" stroke="#31cef0" d="M428.25,-153.663C454.754,-139.527 490.951,-120.222 515.742,-107"/>
<polygon fill="#31cef0" stroke="#31cef0" points="426.49,-150.635 419.313,-158.429 429.784,-156.811 426.49,-150.635"/>
<text text-anchor="middle" x="488.368" y="-129.8" font-family="Verdana" font-size="9.00">10%</text>
</g>
<!-- Accounting.COMPANY -->
<g id="node6" class="node"><title>Accounting.COMPANY</title>
<ellipse fill="#eeeeee" stroke="#eeeeee" cx="713.868" cy="-91" rx="89.0209" ry="18"/>
<text text-anchor="middle" x="713.868" y="-87.9" font-family="Verdana" font-size="12.00">Accounting.COMPANY</text>
</g>
<!-- proposal&#45;&gt;Accounting.COMPANY -->
<g id="edge5" class="edge"><title>proposal&#45;&gt;Accounting.COMPANY</title>
<path fill="none" stroke="#31cef0" d="M439.017,-160.713C497.131,-146.184 597.987,-120.97 660.031,-105.459"/>
<polygon fill="#31cef0" stroke="#31cef0" points="437.881,-157.389 429.029,-163.21 439.579,-164.18 437.881,-157.389"/>
<text text-anchor="middle" x="584.368" y="-129.8" font-family="Verdana" font-size="9.00">10%</text>
</g>
<!-- T1 -->
<g id="node7" class="node"><title>T1</title>
<ellipse fill="#eeeeee" stroke="#eeeeee" cx="159.868" cy="-18" rx="27" ry="18"/>
<text text-anchor="middle" x="159.868" y="-14.9" font-family="Verdana" font-size="12.00">T1</text>
</g>
<!-- Treasurer.COMPANY&#45;&gt;T1 -->
<g id="edge6" class="edge"><title>Treasurer.COMPANY&#45;&gt;T1</title>
<path fill="none" stroke="#31cef0" d="M199.877,-65.5678C190.947,-55.1742 180.809,-43.3742 172.973,-34.2531"/>
<polygon fill="#31cef0" stroke="#31cef0" points="197.24,-67.8698 206.412,-73.174 202.55,-63.3081 197.24,-67.8698"/>
</g>
<!-- T2 -->
<g id="node8" class="node"><title>T2</title>
<ellipse fill="#eeeeee" stroke="#eeeeee" cx="220.868" cy="-18" rx="27" ry="18"/>
<text text-anchor="middle" x="220.868" y="-14.9" font-family="Verdana" font-size="12.00">T2</text>
</g>
<!-- Treasurer.COMPANY&#45;&gt;T2 -->
<g id="edge7" class="edge"><title>Treasurer.COMPANY&#45;&gt;T2</title>
<path fill="none" stroke="#31cef0" d="M220.868,-62.7534C220.868,-53.7651 220.868,-44.0295 220.868,-36.0288"/>
<polygon fill="#31cef0" stroke="#31cef0" points="217.368,-62.8128 220.868,-72.8129 224.368,-62.8129 217.368,-62.8128"/>
</g>
<!-- T3 -->
<g id="node9" class="node"><title>T3</title>
<ellipse fill="#eeeeee" stroke="#eeeeee" cx="281.868" cy="-18" rx="27" ry="18"/>
<text text-anchor="middle" x="281.868" y="-14.9" font-family="Verdana" font-size="12.00">T3</text>
</g>
<!-- Treasurer.COMPANY&#45;&gt;T3 -->
<g id="edge8" class="edge"><title>Treasurer.COMPANY&#45;&gt;T3</title>
<path fill="none" stroke="#31cef0" d="M241.859,-65.5678C250.789,-55.1742 260.927,-43.3742 268.763,-34.2531"/>
<polygon fill="#31cef0" stroke="#31cef0" points="239.186,-63.3081 235.324,-73.174 244.495,-67.8698 239.186,-63.3081"/>
</g>
<!-- C1 -->
<g id="node10" class="node"><title>C1</title>
<ellipse fill="#eeeeee" stroke="#eeeeee" cx="351.868" cy="-18" rx="27" ry="18"/>
<text text-anchor="middle" x="351.868" y="-14.9" font-family="Verdana" font-size="12.00">C1</text>
</g>
<!-- Controller.COMPANY&#45;&gt;C1 -->
<g id="edge9" class="edge"><title>Controller.COMPANY&#45;&gt;C1</title>
<path fill="none" stroke="#31cef0" d="M378.456,-63.947C372.731,-54.2689 366.408,-43.5805 361.365,-35.0556"/>
<polygon fill="#31cef0" stroke="#31cef0" points="375.597,-65.988 383.701,-72.8129 381.622,-62.424 375.597,-65.988"/>
</g>
<!-- C2 -->
<g id="node11" class="node"><title>C2</title>
<ellipse fill="#eeeeee" stroke="#eeeeee" cx="412.868" cy="-18" rx="27" ry="18"/>
<text text-anchor="middle" x="412.868" y="-14.9" font-family="Verdana" font-size="12.00">C2</text>
</g>
<!-- Controller.COMPANY&#45;&gt;C2 -->
<g id="edge10" class="edge"><title>Controller.COMPANY&#45;&gt;C2</title>
<path fill="none" stroke="#31cef0" d="M401.081,-63.0462C403.508,-53.9769 406.147,-44.1164 408.311,-36.0288"/>
<polygon fill="#31cef0" stroke="#31cef0" points="397.671,-62.248 398.467,-72.8129 404.433,-64.0576 397.671,-62.248"/>
</g>
<!-- X1 -->
<g id="node12" class="node"><title>X1</title>
<ellipse fill="#eeeeee" stroke="#eeeeee" cx="482.868" cy="-18" rx="27" ry="18"/>
<text text-anchor="middle" x="482.868" y="-14.9" font-family="Verdana" font-size="12.00">X1</text>
</g>
<!-- Tax.COMPANY&#45;&gt;X1 -->
<g id="edge11" class="edge"><title>Tax.COMPANY&#45;&gt;X1</title>
<path fill="none" stroke="#31cef0" d="M522.877,-65.5678C513.947,-55.1742 503.809,-43.3742 495.973,-34.2531"/>
<polygon fill="#31cef0" stroke="#31cef0" points="520.24,-67.8698 529.412,-73.174 525.55,-63.3081 520.24,-67.8698"/>
</g>
<!-- X2 -->
<g id="node13" class="node"><title>X2</title>
<ellipse fill="#eeeeee" stroke="#eeeeee" cx="543.868" cy="-18" rx="27" ry="18"/>
<text text-anchor="middle" x="543.868" y="-14.9" font-family="Verdana" font-size="12.00">X2</text>
</g>
<!-- Tax.COMPANY&#45;&gt;X2 -->
<g id="edge12" class="edge"><title>Tax.COMPANY&#45;&gt;X2</title>
<path fill="none" stroke="#31cef0" d="M543.868,-62.7534C543.868,-53.7651 543.868,-44.0295 543.868,-36.0288"/>
<polygon fill="#31cef0" stroke="#31cef0" points="540.368,-62.8128 543.868,-72.8129 547.368,-62.8129 540.368,-62.8128"/>
</g>
<!-- A1 -->
<g id="node14" class="node"><title>A1</title>
<ellipse fill="#eeeeee" stroke="#eeeeee" cx="604.868" cy="-18" rx="27" ry="18"/>
<text text-anchor="middle" x="604.868" y="-14.9" font-family="Verdana" font-size="12.00">A1</text>
</g>
<!-- Accounting.COMPANY&#45;&gt;A1 -->
<g id="edge13" class="edge"><title>Accounting.COMPANY&#45;&gt;A1</title>
<path fill="none" stroke="#31cef0" d="M680.338,-68.1597C661.698,-56.0179 639.196,-41.3606 623.639,-31.2268"/>
<polygon fill="#31cef0" stroke="#31cef0" points="678.572,-71.1858 688.861,-73.7112 682.392,-65.3204 678.572,-71.1858"/>
</g>
<!-- A2 -->
<g id="node15" class="node"><title>A2</title>
<ellipse fill="#eeeeee" stroke="#eeeeee" cx="665.868" cy="-18" rx="27" ry="18"/>
<text text-anchor="middle" x="665.868" y="-14.9" font-family="Verdana" font-size="12.00">A2</text>
</g>
<!-- Accounting.COMPANY&#45;&gt;A2 -->
<g id="edge14" class="edge"><title>Accounting.COMPANY&#45;&gt;A2</title>
<path fill="none" stroke="#31cef0" d="M696.575,-64.4208C689.825,-54.4371 682.306,-43.3152 676.398,-34.5758"/>
<polygon fill="#31cef0" stroke="#31cef0" points="693.748,-66.4887 702.248,-72.8129 699.547,-62.5682 693.748,-66.4887"/>
</g>
<!-- A3 -->
<g id="node16" class="node"><title>A3</title>
<ellipse fill="#eeeeee" stroke="#eeeeee" cx="726.868" cy="-18" rx="27" ry="18"/>
<text text-anchor="middle" x="726.868" y="-14.9" font-family="Verdana" font-size="12.00">A3</text>
</g>
<!-- Accounting.COMPANY&#45;&gt;A3 -->
<g id="edge15" class="edge"><title>Accounting.COMPANY&#45;&gt;A3</title>
<path fill="none" stroke="#31cef0" d="M718.857,-62.7534C720.502,-53.7651 722.285,-44.0295 723.75,-36.0288"/>
<polygon fill="#31cef0" stroke="#31cef0" points="715.373,-62.346 717.015,-72.8129 722.259,-63.6068 715.373,-62.346"/>
</g>
<!-- A4 -->
<g id="node17" class="node"><title>A4</title>
<ellipse fill="#eeeeee" stroke="#eeeeee" cx="787.868" cy="-18" rx="27" ry="18"/>
<text text-anchor="middle" x="787.868" y="-14.9" font-family="Verdana" font-size="12.00">A4</text>
</g>
<!-- Accounting.COMPANY&#45;&gt;A4 -->
<g id="edge16" class="edge"><title>Accounting.COMPANY&#45;&gt;A4</title>
<path fill="none" stroke="#31cef0" d="M738.908,-65.9746C750.219,-55.1221 763.201,-42.6666 772.954,-33.3092"/>
<polygon fill="#31cef0" stroke="#31cef0" points="736.197,-63.7251 731.405,-73.174 741.044,-68.7762 736.197,-63.7251"/>
</g>
<!-- A5 -->
<g id="node18" class="node"><title>A5</title>
<ellipse fill="#eeeeee" stroke="#eeeeee" cx="848.868" cy="-18" rx="27" ry="18"/>
<text text-anchor="middle" x="848.868" y="-14.9" font-family="Verdana" font-size="12.00">A5</text>
</g>
<!-- Accounting.COMPANY&#45;&gt;A5 -->
<g id="edge17" class="edge"><title>Accounting.COMPANY&#45;&gt;A5</title>
<path fill="none" stroke="#31cef0" d="M754.044,-69.4087C773.391,-59.4241 796.891,-47.1957 817.868,-36 821.333,-34.1503 825.004,-32.163 828.56,-30.2224"/>
<polygon fill="#31cef0" stroke="#31cef0" points="752.195,-66.4239 744.909,-74.1156 755.402,-72.6464 752.195,-66.4239"/>
</g>
</g>
</svg>
