<?xml version="1.0" encoding="UTF-8" standalone="no"?>
<!DOCTYPE svg PUBLIC "-//W3C//DTD SVG 1.1//EN"
 "http://www.w3.org/Graphics/SVG/1.1/DTD/svg11.dtd">
<!-- Generated by graphviz version 2.38.0 (20140413.2041)
 -->
<!-- Title: foo Pages: 1 -->
<svg width="538pt" height="87pt"
 viewBox="0.00 0.00 538.00 87.00" xmlns="http://www.w3.org/2000/svg" xmlns:xlink="http://www.w3.org/1999/xlink">
<g id="graph0" class="graph" transform="scale(1 1) rotate(0) translate(4 83)">
<title>foo</title>
<polygon fill="white" stroke="none" points="-4,4 -4,-83 534,-83 534,4 -4,4"/>
<!-- P2P network -->
<g id="node1" class="node"><title>P2P network</title>
<polygon fill="#eeeeee" stroke="#eeeeee" points="91,-57 0,-57 0,-21 91,-21 91,-57"/>
<text text-anchor="middle" x="45.5" y="-35.9" font-family="Verdana" font-size="12.00">P2P network</text>
</g>
<!-- Trusted Full Node -->
<g id="node2" class="node"><title>Trusted Full Node</title>
<polygon fill="#eeeeee" stroke="#eeeeee" points="243,-57 127,-57 127,-21 243,-21 243,-57"/>
<text text-anchor="middle" x="185" y="-35.9" font-family="Verdana" font-size="12.00">Trusted Full Node</text>
</g>
<!-- P2P network&#45;&gt;Trusted Full Node -->
<g id="edge1" class="edge"><title>P2P network&#45;&gt;Trusted Full Node</title>
<path fill="none" stroke="#31cef0" d="M101.178,-39C101.178,-39 116.503,-39 116.503,-39"/>
<polygon fill="#31cef0" stroke="#31cef0" points="116.503,-42.5 126.503,-39 116.503,-35.5 116.503,-42.5"/>
<polygon fill="#31cef0" stroke="#31cef0" points="101.178,-35.5 91.1775,-39 101.178,-42.5 101.178,-35.5"/>
</g>
<!-- Delayed Full Node -->
<g id="node3" class="node"><title>Delayed Full Node</title>
<polygon fill="#eeeeee" stroke="#eeeeee" points="398,-79 279,-79 279,-43 398,-43 398,-79"/>
<text text-anchor="middle" x="338.5" y="-57.9" font-family="Verdana" font-size="12.00">Delayed Full Node</text>
</g>
<!-- Trusted Full Node&#45;&gt;Delayed Full Node -->
<g id="edge2" class="edge"><title>Trusted Full Node&#45;&gt;Delayed Full Node</title>
<path fill="none" stroke="#31cef0" d="M253.032,-50C253.032,-50 278.854,-50 278.854,-50"/>
<polygon fill="#31cef0" stroke="#31cef0" points="253.032,-46.5001 243.032,-50 253.032,-53.5001 253.032,-46.5001"/>
</g>
<!-- Wallet -->
<g id="node5" class="node"><title>Wallet</title>
<polygon fill="#eeeeee" stroke="#eeeeee" points="365.5,-36 311.5,-36 311.5,-0 365.5,-0 365.5,-36"/>
<text text-anchor="middle" x="338.5" y="-14.9" font-family="Verdana" font-size="12.00">Wallet</text>
</g>
<!-- Trusted Full Node&#45;&gt;Wallet -->
<g id="edge4" class="edge"><title>Trusted Full Node&#45;&gt;Wallet</title>
<path fill="none" stroke="#31cef0" d="M253.032,-28.5C253.032,-28.5 311.284,-28.5 311.284,-28.5"/>
<polygon fill="#31cef0" stroke="#31cef0" points="253.032,-25.0001 243.032,-28.5 253.032,-32.0001 253.032,-25.0001"/>
</g>
<!-- Deposit API -->
<g id="node4" class="node"><title>Deposit API</title>
<polygon fill="#eeeeee" stroke="#eeeeee" points="524,-79 440,-79 440,-43 524,-43 524,-79"/>
<text text-anchor="middle" x="482" y="-57.9" font-family="Verdana" font-size="12.00">Deposit API</text>
</g>
<!-- Delayed Full Node&#45;&gt;Deposit API -->
<g id="edge3" class="edge"><title>Delayed Full Node&#45;&gt;Deposit API</title>
<path fill="none" stroke="#31cef0" d="M408.11,-61C408.11,-61 439.841,-61 439.841,-61"/>
<polygon fill="#31cef0" stroke="#31cef0" points="408.11,-57.5001 398.11,-61 408.11,-64.5001 408.11,-57.5001"/>
</g>
<!-- Withdraw API -->
<g id="node6" class="node"><title>Withdraw API</title>
<polygon fill="#eeeeee" stroke="#eeeeee" points="530,-36 434,-36 434,-0 530,-0 530,-36"/>
<text text-anchor="middle" x="482" y="-14.9" font-family="Verdana" font-size="12.00">Withdraw API</text>
</g>
<!-- Wallet&#45;&gt;Withdraw API -->
<g id="edge5" class="edge"><title>Wallet&#45;&gt;Withdraw API</title>
<path fill="none" stroke="#31cef0" d="M375.829,-18C375.829,-18 433.852,-18 433.852,-18"/>
<polygon fill="#31cef0" stroke="#31cef0" points="375.829,-14.5001 365.829,-18 375.829,-21.5001 375.829,-14.5001"/>
</g>
</g>
</svg>
