<?xml version="1.0" encoding="UTF-8" standalone="no"?>
<!DOCTYPE svg PUBLIC "-//W3C//DTD SVG 1.1//EN"
 "http://www.w3.org/Graphics/SVG/1.1/DTD/svg11.dtd">
<!-- Generated by graphviz version 2.38.0 (20140413.2041)
 -->
<!-- Title: G Pages: 1 -->
<svg width="601pt" height="332pt"
 viewBox="0.00 0.00 601.03 332.00" xmlns="http://www.w3.org/2000/svg" xmlns:xlink="http://www.w3.org/1999/xlink">
<g id="graph0" class="graph" transform="scale(1 1) rotate(0) translate(4 328)">
<title>G</title>
<polygon fill="white" stroke="none" points="-4,4 -4,-328 597.026,-328 597.026,4 -4,4"/>
<!-- proposal -->
<g id="node1" class="node"><title>proposal</title>
<ellipse fill="#eeeeee" stroke="#eeeeee" cx="288.629" cy="-306" rx="41.7203" ry="18"/>
<text text-anchor="middle" x="288.629" y="-302.9" font-family="Verdana" font-size="12.00">proposal</text>
</g>
<!-- Level_1a -->
<g id="node2" class="node"><title>Level_1a</title>
<ellipse fill="#eeeeee" stroke="#eeeeee" cx="199.629" cy="-234" rx="40.7579" ry="18"/>
<text text-anchor="middle" x="199.629" y="-230.9" font-family="Verdana" font-size="12.00">Level_1a</text>
</g>
<!-- proposal&#45;&gt;Level_1a -->
<g id="edge1" class="edge"><title>proposal&#45;&gt;Level_1a</title>
<path fill="none" stroke="#31cef0" d="M261.119,-283.363C247.326,-272.515 230.971,-259.651 218.597,-249.919"/>
<polygon fill="#31cef0" stroke="#31cef0" points="259.293,-286.38 269.317,-289.811 263.621,-280.878 259.293,-286.38"/>
</g>
<!-- Level_1b -->
<g id="node3" class="node"><title>Level_1b</title>
<ellipse fill="#eeeeee" stroke="#eeeeee" cx="288.629" cy="-234" rx="41.4901" ry="18"/>
<text text-anchor="middle" x="288.629" y="-230.9" font-family="Verdana" font-size="12.00">Level_1b</text>
</g>
<!-- proposal&#45;&gt;Level_1b -->
<g id="edge2" class="edge"><title>proposal&#45;&gt;Level_1b</title>
<path fill="none" stroke="#31cef0" d="M288.629,-277.665C288.629,-269.054 288.629,-259.791 288.629,-252.104"/>
<polygon fill="#31cef0" stroke="#31cef0" points="285.129,-277.697 288.629,-287.697 292.129,-277.697 285.129,-277.697"/>
</g>
<!-- Level_1c -->
<g id="node4" class="node"><title>Level_1c</title>
<ellipse fill="#eeeeee" stroke="#eeeeee" cx="421.629" cy="-234" rx="40.7579" ry="18"/>
<text text-anchor="middle" x="421.629" y="-230.9" font-family="Verdana" font-size="12.00">Level_1c</text>
</g>
<!-- proposal&#45;&gt;Level_1c -->
<g id="edge3" class="edge"><title>proposal&#45;&gt;Level_1c</title>
<path fill="none" stroke="#31cef0" d="M323.019,-286.9C345.964,-274.823 375.621,-259.215 396.394,-248.282"/>
<polygon fill="#31cef0" stroke="#31cef0" points="321.177,-283.914 313.958,-291.669 324.437,-290.108 321.177,-283.914"/>
</g>
<!-- Level_2a -->
<g id="node5" class="node"><title>Level_2a</title>
<ellipse fill="#eeeeee" stroke="#eeeeee" cx="110.629" cy="-162" rx="40.7579" ry="18"/>
<text text-anchor="middle" x="110.629" y="-158.9" font-family="Verdana" font-size="12.00">Level_2a</text>
</g>
<!-- Level_1b&#45;&gt;Level_2a -->
<g id="edge4" class="edge"><title>Level_1b&#45;&gt;Level_2a</title>
<path fill="none" stroke="#31cef0" d="M249.472,-217.601C216.419,-204.603 169.83,-186.281 139.927,-174.522"/>
<polygon fill="#31cef0" stroke="#31cef0" points="248.248,-220.881 258.836,-221.284 250.81,-214.367 248.248,-220.881"/>
</g>
<!-- Level_2b -->
<g id="node6" class="node"><title>Level_2b</title>
<ellipse fill="#eeeeee" stroke="#eeeeee" cx="199.629" cy="-162" rx="41.4901" ry="18"/>
<text text-anchor="middle" x="199.629" y="-158.9" font-family="Verdana" font-size="12.00">Level_2b</text>
</g>
<!-- Level_1b&#45;&gt;Level_2b -->
<g id="edge5" class="edge"><title>Level_1b&#45;&gt;Level_2b</title>
<path fill="none" stroke="#31cef0" d="M261.177,-211.409C247.486,-200.64 231.257,-187.876 218.903,-178.159"/>
<polygon fill="#31cef0" stroke="#31cef0" points="259.293,-214.38 269.317,-217.811 263.621,-208.878 259.293,-214.38"/>
</g>
<!-- Level_2c -->
<g id="node7" class="node"><title>Level_2c</title>
<ellipse fill="#eeeeee" stroke="#eeeeee" cx="288.629" cy="-162" rx="40.7579" ry="18"/>
<text text-anchor="middle" x="288.629" y="-158.9" font-family="Verdana" font-size="12.00">Level_2c</text>
</g>
<!-- Level_1b&#45;&gt;Level_2c -->
<g id="edge6" class="edge"><title>Level_1b&#45;&gt;Level_2c</title>
<path fill="none" stroke="#31cef0" d="M288.629,-205.665C288.629,-197.054 288.629,-187.791 288.629,-180.104"/>
<polygon fill="#31cef0" stroke="#31cef0" points="285.129,-205.697 288.629,-215.697 292.129,-205.697 285.129,-205.697"/>
</g>
<!-- Level_2d -->
<g id="node8" class="node"><title>Level_2d</title>
<ellipse fill="#eeeeee" stroke="#eeeeee" cx="377.629" cy="-162" rx="41.4901" ry="18"/>
<text text-anchor="middle" x="377.629" y="-158.9" font-family="Verdana" font-size="12.00">Level_2d</text>
</g>
<!-- Level_1c&#45;&gt;Level_2d -->
<g id="edge7" class="edge"><title>Level_1c&#45;&gt;Level_2d</title>
<path fill="none" stroke="#31cef0" d="M405.782,-207.789C399.857,-198.363 393.285,-187.907 387.981,-179.47"/>
<polygon fill="#31cef0" stroke="#31cef0" points="402.916,-209.807 411.201,-216.411 408.843,-206.082 402.916,-209.807"/>
</g>
<!-- Level_2e -->
<g id="node9" class="node"><title>Level_2e</title>
<ellipse fill="#eeeeee" stroke="#eeeeee" cx="466.629" cy="-162" rx="40.7579" ry="18"/>
<text text-anchor="middle" x="466.629" y="-158.9" font-family="Verdana" font-size="12.00">Level_2e</text>
</g>
<!-- Level_1c&#45;&gt;Level_2e -->
<g id="edge8" class="edge"><title>Level_1c&#45;&gt;Level_2e</title>
<path fill="none" stroke="#31cef0" d="M437.836,-207.789C443.895,-198.363 450.617,-187.907 456.041,-179.47"/>
<polygon fill="#31cef0" stroke="#31cef0" points="434.757,-206.107 432.293,-216.411 440.645,-209.892 434.757,-206.107"/>
</g>
<!-- Level_2f -->
<g id="node10" class="node"><title>Level_2f</title>
<ellipse fill="#eeeeee" stroke="#eeeeee" cx="553.629" cy="-162" rx="39.2954" ry="18"/>
<text text-anchor="middle" x="553.629" y="-158.9" font-family="Verdana" font-size="12.00">Level_2f</text>
</g>
<!-- Level_1c&#45;&gt;Level_2f -->
<g id="edge9" class="edge"><title>Level_1c&#45;&gt;Level_2f</title>
<path fill="none" stroke="#31cef0" d="M455.761,-214.9C478.533,-202.823 507.966,-187.215 528.583,-176.282"/>
<polygon fill="#31cef0" stroke="#31cef0" points="453.962,-211.892 446.768,-219.669 457.242,-218.076 453.962,-211.892"/>
</g>
<!-- Level_3a -->
<g id="node11" class="node"><title>Level_3a</title>
<ellipse fill="#eeeeee" stroke="#eeeeee" cx="40.6287" cy="-90" rx="40.7579" ry="18"/>
<text text-anchor="middle" x="40.6287" y="-86.9" font-family="Verdana" font-size="12.00">Level_3a</text>
</g>
<!-- Level_2a&#45;&gt;Level_3a -->
<g id="edge10" class="edge"><title>Level_2a&#45;&gt;Level_3a</title>
<path fill="none" stroke="#31cef0" d="M87.64,-138.011C77.4251,-127.796 65.6568,-116.028 56.45,-106.821"/>
<polygon fill="#31cef0" stroke="#31cef0" points="85.1987,-140.52 94.7447,-145.116 90.1484,-135.57 85.1987,-140.52"/>
</g>
<!-- Level_3b -->
<g id="node12" class="node"><title>Level_3b</title>
<ellipse fill="#eeeeee" stroke="#eeeeee" cx="129.629" cy="-90" rx="41.4901" ry="18"/>
<text text-anchor="middle" x="129.629" y="-86.9" font-family="Verdana" font-size="12.00">Level_3b</text>
</g>
<!-- Level_2a&#45;&gt;Level_3b -->
<g id="edge11" class="edge"><title>Level_2a&#45;&gt;Level_3b</title>
<path fill="none" stroke="#31cef0" d="M117.879,-134.29C120.246,-125.567 122.812,-116.115 124.94,-108.275"/>
<polygon fill="#31cef0" stroke="#31cef0" points="114.47,-133.487 115.228,-144.055 121.225,-135.321 114.47,-133.487"/>
</g>
<!-- Level_2b&#45;&gt;Level_3b -->
<g id="edge12" class="edge"><title>Level_2b&#45;&gt;Level_3b</title>
<path fill="none" stroke="#31cef0" d="M176.64,-138.011C166.425,-127.796 154.657,-116.028 145.45,-106.821"/>
<polygon fill="#31cef0" stroke="#31cef0" points="174.199,-140.52 183.745,-145.116 179.148,-135.57 174.199,-140.52"/>
</g>
<!-- Level_3c -->
<g id="node13" class="node"><title>Level_3c</title>
<ellipse fill="#eeeeee" stroke="#eeeeee" cx="218.629" cy="-90" rx="40.7579" ry="18"/>
<text text-anchor="middle" x="218.629" y="-86.9" font-family="Verdana" font-size="12.00">Level_3c</text>
</g>
<!-- Level_2b&#45;&gt;Level_3c -->
<g id="edge13" class="edge"><title>Level_2b&#45;&gt;Level_3c</title>
<path fill="none" stroke="#31cef0" d="M206.879,-134.29C209.246,-125.567 211.812,-116.115 213.94,-108.275"/>
<polygon fill="#31cef0" stroke="#31cef0" points="203.47,-133.487 204.228,-144.055 210.225,-135.321 203.47,-133.487"/>
</g>
<!-- Level_4a -->
<g id="node17" class="node"><title>Level_4a</title>
<ellipse fill="#eeeeee" stroke="#eeeeee" cx="288.629" cy="-18" rx="40.7579" ry="18"/>
<text text-anchor="middle" x="288.629" y="-14.9" font-family="Verdana" font-size="12.00">Level_4a</text>
</g>
<!-- Level_2c&#45;&gt;Level_4a -->
<g id="edge22" class="edge"><title>Level_2c&#45;&gt;Level_4a</title>
<path fill="none" stroke="#31cef0" d="M288.629,-133.679C288.629,-104.888 288.629,-60.4244 288.629,-36.1893"/>
<polygon fill="#31cef0" stroke="#31cef0" points="285.129,-133.871 288.629,-143.871 292.129,-133.872 285.129,-133.871"/>
</g>
<!-- Level_3e -->
<g id="node14" class="node"><title>Level_3e</title>
<ellipse fill="#eeeeee" stroke="#eeeeee" cx="466.629" cy="-90" rx="40.7579" ry="18"/>
<text text-anchor="middle" x="466.629" y="-86.9" font-family="Verdana" font-size="12.00">Level_3e</text>
</g>
<!-- Level_2e&#45;&gt;Level_3e -->
<g id="edge14" class="edge"><title>Level_2e&#45;&gt;Level_3e</title>
<path fill="none" stroke="#31cef0" d="M466.629,-133.665C466.629,-125.054 466.629,-115.791 466.629,-108.104"/>
<polygon fill="#31cef0" stroke="#31cef0" points="463.129,-133.697 466.629,-143.697 470.129,-133.697 463.129,-133.697"/>
</g>
<!-- Level_3d -->
<g id="node15" class="node"><title>Level_3d</title>
<ellipse fill="#eeeeee" stroke="#eeeeee" cx="377.629" cy="-90" rx="41.4901" ry="18"/>
<text text-anchor="middle" x="377.629" y="-86.9" font-family="Verdana" font-size="12.00">Level_3d</text>
</g>
<!-- Level_2e&#45;&gt;Level_3d -->
<g id="edge15" class="edge"><title>Level_2e&#45;&gt;Level_3d</title>
<path fill="none" stroke="#31cef0" d="M439.177,-139.409C425.486,-128.64 409.257,-115.876 396.903,-106.159"/>
<polygon fill="#31cef0" stroke="#31cef0" points="437.293,-142.38 447.317,-145.811 441.621,-136.878 437.293,-142.38"/>
</g>
<!-- Level_2f&#45;&gt;Level_3e -->
<g id="edge16" class="edge"><title>Level_2f&#45;&gt;Level_3e</title>
<path fill="none" stroke="#31cef0" d="M526.794,-139.409C513.41,-128.64 497.547,-115.876 485.47,-106.159"/>
<polygon fill="#31cef0" stroke="#31cef0" points="524.766,-142.269 534.751,-145.811 529.154,-136.815 524.766,-142.269"/>
</g>
<!-- Level_3f -->
<g id="node16" class="node"><title>Level_3f</title>
<ellipse fill="#eeeeee" stroke="#eeeeee" cx="553.629" cy="-90" rx="39.2954" ry="18"/>
<text text-anchor="middle" x="553.629" y="-86.9" font-family="Verdana" font-size="12.00">Level_3f</text>
</g>
<!-- Level_2f&#45;&gt;Level_3f -->
<g id="edge17" class="edge"><title>Level_2f&#45;&gt;Level_3f</title>
<path fill="none" stroke="#31cef0" d="M553.629,-133.665C553.629,-125.054 553.629,-115.791 553.629,-108.104"/>
<polygon fill="#31cef0" stroke="#31cef0" points="550.129,-133.697 553.629,-143.697 557.129,-133.697 550.129,-133.697"/>
</g>
<!-- Level_4b -->
<g id="node18" class="node"><title>Level_4b</title>
<ellipse fill="#eeeeee" stroke="#eeeeee" cx="377.629" cy="-18" rx="41.4901" ry="18"/>
<text text-anchor="middle" x="377.629" y="-14.9" font-family="Verdana" font-size="12.00">Level_4b</text>
</g>
<!-- Level_3e&#45;&gt;Level_4b -->
<g id="edge20" class="edge"><title>Level_3e&#45;&gt;Level_4b</title>
<path fill="none" stroke="#31cef0" d="M439.177,-67.4089C425.486,-56.6403 409.257,-43.8764 396.903,-34.1593"/>
<polygon fill="#31cef0" stroke="#31cef0" points="437.293,-70.3799 447.317,-73.811 441.621,-64.8778 437.293,-70.3799"/>
</g>
<!-- Level_4c -->
<g id="node19" class="node"><title>Level_4c</title>
<ellipse fill="#eeeeee" stroke="#eeeeee" cx="466.629" cy="-18" rx="40.7579" ry="18"/>
<text text-anchor="middle" x="466.629" y="-14.9" font-family="Verdana" font-size="12.00">Level_4c</text>
</g>
<!-- Level_3e&#45;&gt;Level_4c -->
<g id="edge21" class="edge"><title>Level_3e&#45;&gt;Level_4c</title>
<path fill="none" stroke="#31cef0" d="M466.629,-61.6651C466.629,-53.0537 466.629,-43.7913 466.629,-36.1043"/>
<polygon fill="#31cef0" stroke="#31cef0" points="463.129,-61.6966 466.629,-71.6966 470.129,-61.6967 463.129,-61.6966"/>
</g>
<!-- Level_3d&#45;&gt;Level_4a -->
<g id="edge18" class="edge"><title>Level_3d&#45;&gt;Level_4a</title>
<path fill="none" stroke="#31cef0" d="M350.119,-67.363C336.326,-56.5149 319.971,-43.6514 307.597,-33.9188"/>
<polygon fill="#31cef0" stroke="#31cef0" points="348.293,-70.3799 358.317,-73.811 352.621,-64.8778 348.293,-70.3799"/>
</g>
<!-- Level_3d&#45;&gt;Level_4b -->
<g id="edge19" class="edge"><title>Level_3d&#45;&gt;Level_4b</title>
<path fill="none" stroke="#31cef0" d="M377.629,-61.6651C377.629,-53.0537 377.629,-43.7913 377.629,-36.1043"/>
<polygon fill="#31cef0" stroke="#31cef0" points="374.129,-61.6966 377.629,-71.6966 381.129,-61.6967 374.129,-61.6966"/>
</g>
</g>
</svg>
