<?xml version="1.0" encoding="UTF-8" standalone="no"?>
<!DOCTYPE svg PUBLIC "-//W3C//DTD SVG 1.1//EN"
 "http://www.w3.org/Graphics/SVG/1.1/DTD/svg11.dtd">
<!-- Generated by graphviz version 2.38.0 (20140413.2041)
 -->
<!-- Title: G Pages: 1 -->
<svg width="269pt" height="126pt"
 viewBox="0.00 0.00 269.43 126.00" xmlns="http://www.w3.org/2000/svg" xmlns:xlink="http://www.w3.org/1999/xlink">
<g id="graph0" class="graph" transform="scale(1 1) rotate(0) translate(4 122)">
<title>G</title>
<polygon fill="white" stroke="none" points="-4,4 -4,-122 265.427,-122 265.427,4 -4,4"/>
<!-- proposal -->
<g id="node1" class="node"><title>proposal</title>
<ellipse fill="#eeeeee" stroke="#eeeeee" cx="131.021" cy="-100" rx="41.7203" ry="18"/>
<text text-anchor="middle" x="131.021" y="-96.9" font-family="Verdana" font-size="12.00">proposal</text>
</g>
<!-- CEO.COMPANY -->
<g id="node2" class="node"><title>CEO.COMPANY</title>
<ellipse fill="#eeeeee" stroke="#eeeeee" cx="64.021" cy="-18" rx="64.0421" ry="18"/>
<text text-anchor="middle" x="64.021" y="-14.9" font-family="Verdana" font-size="12.00">CEO.COMPANY</text>
</g>
<!-- proposal&#45;&gt;CEO.COMPANY -->
<g id="edge1" class="edge"><title>proposal&#45;&gt;CEO.COMPANY</title>
<path fill="none" stroke="#31cef0" d="M110.86,-74.9271C100.261,-62.2711 87.5318,-47.0726 78.0206,-35.7158"/>
<polygon fill="#31cef0" stroke="#31cef0" points="108.359,-77.3916 117.463,-82.8108 113.725,-72.8971 108.359,-77.3916"/>
<text text-anchor="middle" x="112.521" y="-56.8" font-family="Verdana" font-size="9.00">51%</text>
</g>
<!-- CFO.COMPANY -->
<g id="node3" class="node"><title>CFO.COMPANY</title>
<ellipse fill="#eeeeee" stroke="#eeeeee" cx="198.021" cy="-18" rx="63.3111" ry="18"/>
<text text-anchor="middle" x="198.021" y="-14.9" font-family="Verdana" font-size="12.00">CFO.COMPANY</text>
</g>
<!-- proposal&#45;&gt;CFO.COMPANY -->
<g id="edge2" class="edge"><title>proposal&#45;&gt;CFO.COMPANY</title>
<path fill="none" stroke="#31cef0" d="M151.182,-74.9271C161.782,-62.2711 174.51,-47.0726 184.022,-35.7158"/>
<polygon fill="#31cef0" stroke="#31cef0" points="148.317,-72.8971 144.579,-82.8108 153.683,-77.3916 148.317,-72.8971"/>
<text text-anchor="middle" x="178.521" y="-56.8" font-family="Verdana" font-size="9.00">51%</text>
</g>
</g>
</svg>
